<svg width="547" height="547" viewBox="0 0 547 547" fill="none" xmlns="http://www.w3.org/2000/svg">
<rect width="547" height="547" fill="#1F1F1F"/>
<path d="M162 406.405C137.747 406.405 140.211 382.675 135.474 368C138.316 386.734 123.158 406.405 108 407.342C133.768 407.342 135.474 418.582 135.474 442C135.474 418.77 144 413.899 162 406.405Z" fill="white" stroke="white"/>
<path d="M438 382.405C413.747 382.405 416.211 358.675 411.474 344C414.316 362.734 399.158 382.405 384 383.342C409.768 383.342 411.474 394.582 411.474 418C411.474 394.77 420 389.899 438 382.405Z" fill="white" stroke="white"/>
<g clip-path="url(#clip0_723_910)">
<path d="M392.972 208.645C393.078 203.801 391.914 199.014 389.596 194.762C387.193 190.653 383.729 187.269 379.568 184.967C342.687 163.621 305.793 142.306 268.886 121.02C258.948 115.26 249.316 115.465 239.442 121.314C224.764 129.96 151.26 172.221 129.358 184.954C120.338 190.19 115.955 198.211 115.955 208.632V337.368C115.861 342.109 116.98 346.796 119.204 350.982C121.608 355.217 125.136 358.701 129.396 361.046C151.298 373.818 224.815 416.027 239.493 424.712C249.367 430.561 258.999 430.765 268.95 425.005C305.823 403.652 342.717 382.328 379.632 361.033C383.893 358.688 387.421 355.204 389.825 350.969C392.049 346.783 393.167 342.097 393.074 337.355V208.645H392.972Z" fill="#004482"/>
<path d="M392.998 337.368C393.094 342.11 391.975 346.797 389.749 350.982C389.202 351.979 388.585 352.935 387.902 353.843L254.464 273L379.569 184.967C383.725 187.27 387.185 190.654 389.583 194.762C391.912 199.011 393.081 203.799 392.973 208.645C392.998 251.557 392.998 337.368 392.998 337.368Z" fill="#00599C"/>
<path d="M389.584 194.762L119.166 350.982C116.952 346.798 115.843 342.116 115.943 337.381V208.632C115.943 198.211 120.338 190.19 129.346 184.954C151.261 172.221 224.765 129.96 239.455 121.288C249.304 115.439 258.949 115.235 268.887 120.995C305.76 142.349 342.654 163.673 379.569 184.967C383.726 187.27 387.185 190.654 389.584 194.762Z" fill="#659AD2"/>
<path d="M259.815 325.006C250.709 325.018 241.768 322.58 233.923 317.945C226.079 313.311 219.62 306.65 215.221 298.658C214.771 297.858 214.346 297.04 213.947 296.206C208.52 284.97 207.391 272.13 210.775 260.116C214.159 248.102 221.821 237.75 232.309 231.018C242.797 224.287 255.384 221.645 267.685 223.592C279.987 225.539 291.149 231.94 299.058 241.583C299.733 242.4 300.332 243.256 301.007 244.137C301.313 244.558 301.619 244.98 301.899 245.414L346.582 219.616C345.495 217.862 344.357 216.159 343.168 214.507C342.543 213.626 341.893 212.783 341.282 211.953C325.751 191.729 303.224 178.073 278.143 173.678C253.062 169.283 227.249 174.468 205.795 188.211C184.34 201.954 168.802 223.256 162.245 247.917C155.687 272.578 158.587 298.807 170.372 321.43C170.806 322.247 171.252 323.052 171.647 323.856C180.302 339.163 192.758 351.968 207.806 361.026C222.855 370.084 239.984 375.089 257.531 375.554C275.078 376.019 292.447 371.929 307.952 363.681C323.457 355.433 336.571 343.307 346.022 328.479L302.332 302.004C297.707 309.074 291.398 314.879 283.975 318.894C276.553 322.91 268.25 325.01 259.815 325.006Z" fill="white"/>
<path d="M166 198.405C141.747 198.405 144.211 174.675 139.474 160C142.316 178.734 127.158 198.405 112 199.342C137.768 199.342 139.474 210.582 139.474 234C139.474 210.77 148 205.899 166 198.405Z" fill="white" stroke="white"/>
<path d="M378 136.405C353.747 136.405 356.211 112.675 351.474 98C354.316 116.734 339.158 136.405 324 137.342C349.768 137.342 351.474 148.582 351.474 172C351.474 148.77 360 143.899 378 136.405Z" fill="white" stroke="white"/>
</g>
<defs>
<clipPath id="clip0_723_910">
<rect width="285" height="338" fill="white" transform="translate(112 104)"/>
</clipPath>
</defs>
</svg>